<svg xmlns="http://www.w3.org/2000/svg" viewBox="0 0 1024 1024" role="img" aria-labelledby="title desc">
  <title id="title">gitpull GP arrow logo option C</title>
  <desc id="desc">Monogram-style GP mark with an integrated pull arrow, optimized for small launcher sizes.</desc>
  <defs>
    <linearGradient id="bg" x1="164" y1="136" x2="860" y2="884" gradientUnits="userSpaceOnUse">
      <stop offset="0" stop-color="#F8FAFC"/>
      <stop offset="1" stop-color="#E2E8F0"/>
    </linearGradient>
    <linearGradient id="mark" x1="292" y1="250" x2="734" y2="758" gradientUnits="userSpaceOnUse">
      <stop offset="0" stop-color="#111827"/>
      <stop offset=".62" stop-color="#111827"/>
      <stop offset="1" stop-color="#7C3AED"/>
    </linearGradient>
  </defs>
  <rect x="96" y="96" width="832" height="832" rx="232" fill="url(#bg)"/>
  <rect x="168" y="168" width="688" height="688" rx="208" fill="#FFFFFF" stroke="#CBD5E1" stroke-width="28"/>
  <path d="M513 304c-115 0-208 93-208 208s93 208 208 208c91 0 168-58 197-139h-171v-112h311v52c0 171-139 310-310 310H512c-176 0-319-143-319-319s143-319 319-319h13c86 0 164 34 221 89l-82 82c-38-37-90-60-151-60Z" fill="url(#mark)"/>
  <path d="M520 213v292" stroke="#22C55E" stroke-width="78" stroke-linecap="round"/>
  <path d="M405 390 520 505l115-115" fill="none" stroke="#22C55E" stroke-width="78" stroke-linecap="round" stroke-linejoin="round"/>
  <path d="M520 213v292" stroke="#FFFFFF" stroke-opacity=".34" stroke-width="24" stroke-linecap="round"/>
</svg>
